<svg width="25" height="24" viewBox="0 0 25 24" fill="none" xmlns="http://www.w3.org/2000/svg">
<g clip-path="url(#clip0)">
<path d="M12.6 24C19.2274 24 24.6 18.6274 24.6 12C24.6 5.37258 19.2274 0 12.6 0C5.97256 0 0.599976 5.37258 0.599976 12C0.599976 18.6274 5.97256 24 12.6 24Z" fill="white"/>
<path d="M19.5052 7.81143C19.0959 7.08345 18.6537 6.94935 17.7491 6.89826C16.8434 6.83813 14.5689 6.81152 12.6 6.81152C10.631 6.81152 8.35343 6.83707 7.4509 6.8972C6.54625 6.95041 6.10296 7.08239 5.68948 7.81143C5.26802 8.53888 5.0509 9.79157 5.0509 11.9973V12.0048C5.0509 14.201 5.26802 15.4638 5.68948 16.1827C6.10296 16.9112 6.54731 17.0432 7.44984 17.1044C8.35449 17.1576 10.6273 17.1885 12.6 17.1885C14.5727 17.1885 16.8412 17.1576 17.7459 17.1054C18.6505 17.0442 19.0949 16.9123 19.502 16.1838C19.9277 15.4638 20.1406 14.202 20.1406 12.0058V12C20.1469 9.79157 19.932 8.54101 19.5052 7.81143ZM10.7135 14.83V9.17002L15.43 12L10.7135 14.83Z" fill="black"/>
</g>
<defs>
<clipPath id="clip0">
<rect x="0.599976" width="24" height="24" fill="white"/>
</clipPath>
</defs>
</svg>
