<svg width="24" height="24" viewBox="0 0 24 24" fill="none" xmlns="http://www.w3.org/2000/svg">
<g clip-path="url(#clip0)">
<path d="M24 11.9973C24.0005 14.3708 23.2972 16.6912 21.9789 18.6649C20.6607 20.6386 18.7867 22.1771 16.5941 23.0858C14.4014 23.9944 11.9885 24.2325 9.66055 23.7697C7.33261 23.307 5.19417 22.1644 3.51567 20.4862C1.83717 18.8081 0.694017 16.6699 0.230777 14.3421C-0.232462 12.0142 0.00502317 9.60129 0.913196 7.40842C1.82137 5.21555 3.35944 3.34124 5.33288 2.02255C7.30633 0.703853 9.62651 5.89185e-08 12 0C15.1821 -7.8992e-08 18.234 1.26391 20.4843 3.51377C22.7347 5.76363 23.9993 8.81519 24 11.9973Z" fill="white"/>
<path d="M15.016 12.4679H12.877V20.3128H9.62566V12.4679H8.08289V9.71118H9.62566V7.92775C9.62566 6.65235 10.2326 4.65503 12.8984 4.65503H15.3048V7.32883H13.5615C13.4642 7.32402 13.3671 7.34068 13.2771 7.37764C13.187 7.41459 13.1062 7.47093 13.0403 7.54265C12.9745 7.61437 12.9252 7.69971 12.8961 7.7926C12.8669 7.8855 12.8586 7.98368 12.8717 8.08016V9.70316H15.2968L15.016 12.4679Z" fill="black"/>
</g>
<defs>
<clipPath id="clip0">
<rect width="24" height="24" fill="white"/>
</clipPath>
</defs>
</svg>
