<svg width="25" height="24" viewBox="0 0 25 24" fill="none" xmlns="http://www.w3.org/2000/svg">
<path d="M15.8327 4.66675H8.56731C6.52352 4.66675 4.8667 6.32355 4.8667 8.36732V15.6327C4.8667 17.6764 6.52352 19.3333 8.56731 19.3333H15.8327C17.8765 19.3333 19.5334 17.6764 19.5334 15.6327V8.36732C19.5334 6.32355 17.8765 4.66675 15.8327 4.66675Z" fill="black"/>
<path d="M15.5762 6.66675H8.82073C8.30249 6.66675 7.80547 6.87231 7.43901 7.23822C7.07256 7.60412 6.8667 8.10039 6.8667 8.61786V15.379C6.8667 15.8967 7.07246 16.3933 7.43882 16.7597C7.80518 17.1261 8.3022 17.3324 8.82073 17.3333H15.5762C16.095 17.3324 16.5923 17.1262 16.9592 16.7599C17.3261 16.3936 17.5325 15.897 17.5334 15.379V8.63363C17.5325 8.11587 17.326 7.61961 16.959 7.25379C16.592 6.88798 16.0947 6.68251 15.5762 6.68251V6.66675ZM12.1984 15.4925C11.5029 15.4943 10.8224 15.29 10.2432 14.9054C9.66407 14.5208 9.21227 13.9731 8.94508 13.3319C8.67789 12.6906 8.60733 11.9846 8.74234 11.3033C8.87735 10.622 9.21185 9.99602 9.70347 9.50469C10.1951 9.01336 10.8217 8.67879 11.5039 8.54337C12.1861 8.40795 12.8933 8.47777 13.5357 8.74399C14.1782 9.0102 14.727 9.46083 15.1127 10.0388C15.4985 10.6167 15.7037 11.296 15.7024 11.9905C15.7016 12.9207 15.3312 13.8126 14.6725 14.4703C14.0137 15.128 13.1205 15.4979 12.189 15.4988L12.1984 15.4925ZM15.8256 9.20414C15.6606 9.20477 15.4992 9.15649 15.3617 9.06543C15.2242 8.97438 15.1169 8.84464 15.0534 8.69264C14.9898 8.54064 14.9729 8.37323 15.0047 8.2116C15.0364 8.04997 15.1156 7.90141 15.232 7.78472C15.3484 7.66803 15.4969 7.58846 15.6586 7.5561C15.8204 7.52373 15.9881 7.54002 16.1406 7.60291C16.2931 7.6658 16.4234 7.77245 16.5151 7.90936C16.6068 8.04628 16.6558 8.20729 16.6558 8.372C16.6558 8.59215 16.5684 8.80334 16.4128 8.95931C16.2572 9.11527 16.046 9.20331 15.8256 9.20414Z" fill="white"/>
<path d="M12.2 10C11.8043 10 11.4175 10.1174 11.0886 10.3373C10.7596 10.5572 10.5032 10.8697 10.352 11.2354C10.2007 11.601 10.1612 12.0033 10.2387 12.3913C10.3161 12.7794 10.5069 13.1357 10.7869 13.4153C11.0669 13.6949 11.4236 13.8851 11.8117 13.9619C12.1999 14.0388 12.6021 13.9987 12.9675 13.8469C13.3329 13.695 13.6451 13.4382 13.8645 13.1089C14.0839 12.7796 14.2006 12.3926 14.2 11.9969C14.1992 11.467 13.9881 10.9591 13.6131 10.5847C13.2381 10.2103 12.7299 10 12.2 10Z" fill="white"/>
<path d="M12.1967 4.65586e-07C9.82344 0.000661533 7.5037 0.705005 5.53075 2.02398C3.5578 3.34296 2.02025 5.21734 1.11251 7.41011C0.20477 9.60288 -0.0323999 12.0156 0.431 14.3431C0.8944 16.6707 2.03756 18.8086 3.71592 20.4865C5.39428 22.1644 7.53248 23.3069 9.86016 23.7697C12.1878 24.2324 14.6005 23.9946 16.793 23.0862C18.9855 22.1779 20.8595 20.6398 22.1779 18.6665C23.4963 16.6932 24.2 14.3732 24.2 12C24.2 10.4239 23.8895 8.86315 23.2862 7.40703C22.683 5.9509 21.7988 4.62788 20.6841 3.51353C19.5695 2.39919 18.2462 1.51535 16.7899 0.912488C15.3336 0.309628 13.7728 -0.000438572 12.1967 4.65586e-07ZM19.4167 15.61C19.4185 16.0895 19.3257 16.5646 19.1436 17.0082C18.9616 17.4517 18.6938 17.855 18.3557 18.195C18.0176 18.5349 17.6158 18.8049 17.1732 18.9894C16.7307 19.1739 16.2561 19.2693 15.7766 19.2702H8.62008C7.65462 19.2684 6.72927 18.8839 6.0469 18.2009C5.36453 17.5179 4.98084 16.5922 4.97996 15.6267V8.47354C4.98084 7.50809 5.36453 6.58238 6.0469 5.89938C6.72927 5.21639 7.65462 4.83185 8.62008 4.83008H15.7766C16.7421 4.83185 17.6674 5.21639 18.3498 5.89938C19.0322 6.58238 19.4158 7.50809 19.4167 8.47354V15.61Z" fill="white"/>
</svg>
