<svg width="25" height="24" viewBox="0 0 25 24" fill="none" xmlns="http://www.w3.org/2000/svg">
<path d="M24.4 11.9973C24.4006 14.3708 23.6972 16.6912 22.379 18.6649C21.0607 20.6386 19.1867 22.1771 16.9941 23.0858C14.8014 23.9944 12.3885 24.2325 10.0606 23.7697C7.73263 23.307 5.59419 22.1644 3.91569 20.4862C2.23719 18.8081 1.09404 16.6699 0.630802 14.3421C0.167562 12.0142 0.405048 9.60129 1.31322 7.40842C2.22139 5.21555 3.75946 3.34124 5.73291 2.02255C7.70636 0.703853 10.0265 5.89185e-08 12.4 0C15.5822 -7.8992e-08 18.634 1.26391 20.8844 3.51377C23.1347 5.76363 24.3993 8.81519 24.4 11.9973Z" fill="white"/>
<path d="M19.7503 8.62296C19.2265 8.85397 18.6715 9.00624 18.1032 9.07483C18.7016 8.71491 19.1498 8.15087 19.3652 7.4866C18.8009 7.81996 18.1844 8.05588 17.5417 8.18446C17.1484 7.7647 16.638 7.47285 16.0767 7.34681C15.5155 7.22078 14.9293 7.26637 14.3943 7.47766C13.8593 7.68896 13.4001 8.05622 13.0764 8.53174C12.7528 9.00727 12.5795 9.56912 12.5791 10.1444C12.5795 10.3648 12.6046 10.5846 12.654 10.7994C11.5136 10.742 10.398 10.4455 9.37954 9.92914C8.3611 9.41278 7.46258 8.6881 6.74226 7.8021C6.37472 8.43232 6.26083 9.1788 6.42371 9.88995C6.5866 10.6011 7.01405 11.2236 7.61926 11.631C7.1637 11.6171 6.71812 11.4942 6.3198 11.2727V11.3101C6.32032 11.9722 6.54984 12.6138 6.96944 13.126C7.38904 13.6382 7.97287 13.9895 8.62193 14.1203C8.37547 14.1883 8.12092 14.2224 7.86525 14.2219C7.68584 14.221 7.50687 14.204 7.33049 14.1711C7.5138 14.7399 7.86982 15.2374 8.34904 15.5944C8.82826 15.9514 9.40684 16.1502 10.0043 16.1631C8.8007 17.1028 7.27477 17.5295 5.7583 17.3502C7.07234 18.1955 8.60227 18.6439 10.1647 18.6417C15.4401 18.6417 18.3278 14.27 18.3278 10.4813C18.3278 10.3556 18.3278 10.2326 18.3278 10.1096C18.8887 9.70346 19.373 9.20102 19.7583 8.62564L19.7503 8.62296Z" fill="black"/>
</svg>
