<svg width="25" height="24" viewBox="0 0 25 24" fill="none" xmlns="http://www.w3.org/2000/svg">
<path d="M24.8 11.9973C24.8005 14.3708 24.0972 16.6912 22.7789 18.6649C21.4607 20.6386 19.5867 22.1771 17.394 23.0858C15.2014 23.9944 12.7885 24.2325 10.4605 23.7697C8.13259 23.307 5.99415 22.1643 4.31566 20.4862C2.63716 18.8081 1.494 16.6699 1.03077 14.3421C0.567526 12.0142 0.805011 9.60129 1.71318 7.40842C2.62136 5.21555 4.15942 3.34124 6.13287 2.02255C8.10632 0.703853 10.4265 5.89185e-08 12.8 0C15.9821 -7.89919e-08 19.034 1.26391 21.2843 3.51377C23.5347 5.76363 24.7993 8.81519 24.8 11.9973Z" fill="white"/>
<path fill-rule="evenodd" clip-rule="evenodd" d="M12.2492 17.0002H13.1764C13.3316 16.9826 13.4779 16.9209 13.5966 16.823C13.6818 16.7088 13.7268 16.5714 13.7253 16.4307C13.7253 16.4307 13.7069 15.2336 14.2822 15.059C14.8574 14.8844 15.5797 16.2131 16.3519 16.7243C16.643 16.9471 17.0108 17.0556 17.3815 17.028L19.4486 17.0002C19.4486 17.0002 20.5308 16.9344 20.0159 16.1169C19.9739 16.0486 19.7191 15.5095 18.4794 14.4035C17.1845 13.2443 17.3579 13.4316 18.918 11.4246C19.8689 10.2047 20.2497 9.46063 20.1315 9.14679C20.0133 8.83296 19.3199 8.92407 19.3199 8.92407L16.9901 8.93926C16.8876 8.92728 16.7837 8.94398 16.6907 8.98734C16.6006 9.053 16.53 9.14027 16.4858 9.24044C16.2415 9.83604 15.9509 10.413 15.6164 10.9665C14.5816 12.6648 14.1666 12.7533 13.9985 12.647C13.6045 12.3939 13.7017 11.6625 13.7017 11.1285C13.7017 9.48594 13.9643 8.80006 13.1974 8.62289C12.8425 8.54004 12.4774 8.50511 12.1126 8.51913C11.2826 8.51913 10.5787 8.51913 10.1821 8.70894C9.91942 8.83296 9.71192 9.11136 9.83537 9.12907C10.1 9.15177 10.3459 9.27024 10.5235 9.46062C10.7625 9.77446 10.7547 10.473 10.7547 10.473C10.7547 10.473 10.8913 12.4066 10.4342 12.647C10.119 12.8141 9.68829 12.4749 8.76636 10.9387C8.45182 10.4032 8.17369 9.8486 7.93374 9.2784C7.89218 9.18024 7.82636 9.09335 7.742 9.02531C7.63403 8.9559 7.51247 8.90853 7.38479 8.88611H5.17321C5.009 8.88739 4.84962 8.93976 4.71882 9.03543C4.61113 9.15692 4.71882 9.41507 4.71882 9.41507C4.71882 9.41507 6.44973 13.3177 8.41178 15.2842C10.2083 17.0888 12.2492 16.9698 12.2492 16.9698V17.0002Z" fill="black"/>
</svg>
