<svg xmlns="http://www.w3.org/2000/svg" width="1133.42" height="121.739" viewBox="0 0 1133.42 121.739">
  <g id="Group_1" data-name="Group 1" transform="translate(-78.29 -66.581)">
    <path id="Path_1" data-name="Path 1" d="M137.925,156.427c-8.379-19.717-18.73-24.644-21.686-25.8v26.781c0,12.485,5.093,26.779,5.093,27.435v.659H78.29v-.659c0-.656,5.093-14.95,5.093-27.435v-62.1c0-12.485-5.093-26.779-5.093-27.435v-.656h60.128c23.329,0,39.429,12.813,39.429,30.391,0,19.221-14.95,28.587-37.623,30.065,12.157,2.137,22.017,8.379,28.753,19.221,8.377,13.472,12.485,28.094,23.82,37.786v.824H153.7C148.766,181.56,142.689,167.759,137.925,156.427ZM116.239,73.954v49.121h10.514c11.5,0,16.1-8.87,16.1-23.657,0-14.294-4.6-25.464-16.1-25.464Z" transform="translate(0 1.009)" fill="#d69768"/>
    <path id="Path_2" data-name="Path 2" d="M120.071,127.37c0-36.967,25.135-60.789,57.994-60.789,32.693,0,57.994,23.988,57.994,60.789,0,36.964-25.3,60.95-57.994,60.95C145.206,188.32,120.071,164.335,120.071,127.37Zm79.352-.331c0-20.043-5.586-52.9-21.358-52.9s-21.358,33.515-21.358,53.56c0,20.205,5.586,53.064,21.358,53.064S199.423,147.248,199.423,127.04Z" transform="translate(66.174 0)" fill="#d69768"/>
    <path id="Path_3" data-name="Path 3" d="M163,68.037v-.819h49.945v.656c0,.822-5.586,15.278.328,27.763l17.25,36.145,15.937-33.515c6.405-13.635-.659-29.406-.659-30.231v-.819h28.094v.656c0,.656-9.692,13.963-14.785,25.3L235.778,139.5v17.908c0,12.485,5.093,26.779,5.093,27.435v.659H197.5v-.659c0-.656,5.093-14.95,5.093-27.435V139.5L177.784,93.01C172.361,81.674,163,68.7,163,68.037Z" transform="translate(134.16 1.009)" fill="#d69768"/>
    <path id="Path_4" data-name="Path 4" d="M217.6,145.417,236.66,91.366c3.78-10.679-3.119-23-3.119-23.492v-.656h38.607l33.184,89.044c4.765,12.813,9.532,21.849,14.294,28.585v.659H268.862v-.659c0-.822,6.077-15.772,1.315-28.585l-3.945-10.679H226.475l-1.806,5.093c-5.258,15.278,4.271,33.187,4.271,34.006v.824H200.518v-.659A312.278,312.278,0,0,0,217.6,145.417Zm45.506-8.051L245.861,90.71l-16.428,46.656Z" transform="translate(193.587 1.009)" fill="#d69768"/>
    <path id="Path_5" data-name="Path 5" d="M286.8,95.309v82.473h12.65c16.265,0,34.83-30.556,35.651-30.556h.819v38.279H248.848v-.659c0-.656,5.093-14.95,5.093-27.435v-62.1c0-12.485-5.093-26.779-5.093-27.435v-.656h43.044v.656C291.892,68.531,286.8,82.824,286.8,95.309Z" transform="translate(270.133 1.009)" fill="#d69768"/>
    <path id="Path_6" data-name="Path 6" d="M299.087,67.218h58.978c23.329,0,39.266,13.635,39.266,31.378,0,15.443-12.322,23-24.807,26.779,15.113,3.284,30.391,11.335,30.391,29.572,0,20.864-19.877,30.559-41.563,30.559H299.087v-.659c0-.656,5.093-14.95,5.093-27.435v-62.1c0-12.485-5.093-26.779-5.093-27.435ZM363.158,98.6c0-9.529-5.255-23.329-16.756-23.329h-9.364v46.821H346.4C357.9,122.088,363.158,107.96,363.158,98.6Zm5.752,55.857c0-11.992-4.436-24.477-19.221-24.477h-12.65v47.478h12.65C362.83,177.454,368.909,168.747,368.909,154.453Z" transform="translate(349.702 1.009)" fill="#d69768"/>
    <path id="Path_7" data-name="Path 7" d="M380.221,95.309v82.473h12.648c16.263,0,34.83-30.556,35.652-30.556h.822v38.279H342.265v-.659c0-.656,5.1-14.95,5.1-27.435v-62.1c0-12.485-5.1-26.779-5.1-27.435v-.656h43.046v.656C385.311,68.531,380.221,82.824,380.221,95.309Z" transform="translate(418.088 1.009)" fill="#d69768"/>
    <path id="Path_8" data-name="Path 8" d="M378.068,127.37c0-36.967,25.138-60.789,57.994-60.789,32.693,0,57.994,23.988,57.994,60.789,0,36.964-25.3,60.95-57.994,60.95C403.206,188.32,378.068,164.335,378.068,127.37Zm79.352-.331c0-20.043-5.586-52.9-21.358-52.9S414.7,107.653,414.7,127.7c0,20.205,5.586,53.064,21.358,53.064S457.42,147.248,457.42,127.04Z" transform="translate(474.794 0)" fill="#d69768"/>
    <path id="Path_9" data-name="Path 9" d="M426.21,127.37c0-36.967,25.135-60.789,57.991-60.789,32.7,0,58,23.988,58,60.789,0,36.964-25.3,60.95-58,60.95C451.345,188.32,426.21,164.335,426.21,127.37Zm79.349-.331c0-20.043-5.584-52.9-21.358-52.9s-21.358,33.515-21.358,53.56c0,20.205,5.589,53.064,21.358,53.064S505.559,147.248,505.559,127.04Z" transform="translate(551.042 0)" fill="#d69768"/>
    <path id="Path_10" data-name="Path 10" d="M474.477,67.218h51.754c32.525,0,57.991,23,57.991,58.978,0,36.964-25.466,59.309-57.991,59.309H474.477v-.659c0-.656,5.093-14.95,5.093-27.435v-62.1c0-12.485-5.093-26.779-5.093-27.435Zm37.954,7.39V177.945h3.775c23.988,0,31.383-26.611,31.383-51.749,0-24.151-7.395-51.589-31.383-51.589Z" transform="translate(627.488 1.009)" fill="#d69768"/>
  </g>
</svg>
